<svg width="7" height="12" viewBox="0 0 7 12" fill="none" xmlns="http://www.w3.org/2000/svg">
<path d="M0.309999 0.710007C0.217296 0.80252 0.143748 0.912409 0.0935669 1.03338C0.0433854 1.15436 0.0175552 1.28404 0.0175552 1.41501C0.0175552 1.54598 0.0433854 1.67566 0.0935669 1.79663C0.143748 1.9176 0.217296 2.02749 0.309999 2.12001L4.19 6.00001L0.309999 9.88001C0.123022 10.067 0.0179787 10.3206 0.0179787 10.585C0.0179787 10.8494 0.123022 11.103 0.309999 11.29C0.496977 11.477 0.750573 11.582 1.015 11.582C1.27943 11.582 1.53302 11.477 1.72 11.29L6.31 6.70001C6.4027 6.60749 6.47625 6.4976 6.52643 6.37663C6.57661 6.25566 6.60244 6.12597 6.60244 5.99501C6.60244 5.86404 6.57661 5.73436 6.52643 5.61338C6.47625 5.49241 6.4027 5.38252 6.31 5.29001L1.72 0.700007C1.34 0.320007 0.699999 0.320007 0.309999 0.710007Z" fill="#F8F8F8"/>
</svg>
