<svg xmlns="http://www.w3.org/2000/svg"  viewBox="0 0 100 100" width="100px" height="100px"><path d="M 88.105469 10.027344 A 2.0002 2.0002 0 0 0 87.046875 10.394531 C 67.091354 24.585949 51.649225 43.607608 40.251953 63.871094 C 38.184676 61.656563 35.362941 59.185885 31.419922 56.40625 C 29.933361 55.358297 28.341567 54.308802 26.689453 53.28125 A 1.0001 1.0001 0 0 0 26.429688 53.121094 C 22.34454 50.598171 17.863806 48.243774 13.402344 46.566406 A 2.0002 2.0002 0 0 0 11.179688 47.134766 L 2.484375 57.267578 A 2.0002 2.0002 0 0 0 3.6855469 60.544922 C 17.658341 62.775206 29.295968 73.678765 39.75 89.558594 A 2.0002 2.0002 0 0 0 43.103516 89.539062 C 56.982444 67.913498 69.582994 45.287153 97.916016 25.675781 A 2.0002 2.0002 0 0 0 98.404297 22.869141 L 89.832031 10.863281 A 2.0002 2.0002 0 0 0 88.105469 10.027344 z M 87.775391 14.865234 L 94.017578 23.609375 C 67.21049 42.696902 54.266016 64.553799 41.296875 84.935547 C 40.931414 84.405772 40.560787 83.890451 40.191406 83.371094 L 42.558594 80.412109 A 1.0001 1.0001 0 0 0 41.746094 78.777344 A 1.0001 1.0001 0 0 0 40.996094 79.162109 L 38.974609 81.689453 C 38.642586 81.238632 38.309919 80.789626 37.974609 80.347656 L 39.28125 77.6875 A 1.0001 1.0001 0 0 0 38.332031 76.234375 A 1.0001 1.0001 0 0 0 37.486328 76.804688 L 36.609375 78.591797 C 36.27636 78.170848 35.943781 77.74777 35.607422 77.335938 L 38.314453 73.369141 A 1.0001 1.0001 0 0 0 37.480469 71.794922 A 1.0001 1.0001 0 0 0 36.662109 72.242188 L 34.273438 75.742188 C 26.470515 66.597889 17.755774 59.956746 7.6484375 57.392578 L 13.226562 50.890625 C 15.008858 51.612687 16.807299 52.449957 18.585938 53.351562 L 17.724609 54.382812 A 1.0001 1.0001 0 1 0 19.259766 55.664062 L 20.400391 54.298828 C 21.139023 54.696843 21.86908 55.104277 22.591797 55.521484 L 21.492188 56.400391 A 1.0004882 1.0004882 0 1 0 22.742188 57.962891 L 24.429688 56.613281 C 25.139779 57.046616 25.837179 57.48433 26.519531 57.927734 L 24.953125 59.931641 A 1.0001 1.0001 0 1 0 26.527344 61.164062 L 28.1875 59.041016 C 28.49714 59.252913 28.813999 59.463425 29.115234 59.675781 C 30.353369 60.548605 31.522229 61.431173 32.597656 62.285156 L 29.914062 65.853516 A 1.0001 1.0001 0 1 0 31.511719 67.056641 L 34.148438 63.550781 C 36.614868 65.622846 38.371247 67.391506 38.939453 68.244141 A 2.0002 2.0002 0 0 0 42.361328 68.091797 C 46.008319 61.390111 50.126753 54.833179 54.695312 48.535156 L 59.173828 49.59375 A 1.0001 1.0001 0 1 0 59.632812 47.648438 L 55.976562 46.783203 C 56.777422 45.708257 57.595551 44.643824 58.423828 43.585938 L 63.525391 42.941406 A 1.0001 1.0001 0 0 0 63.443359 40.949219 A 1.0001 1.0001 0 0 0 63.275391 40.957031 L 60.212891 41.34375 C 60.776948 40.648512 61.335892 39.950473 61.912109 39.263672 L 66.847656 38.992188 A 1.0001907 1.0001907 0 0 0 66.808594 36.992188 A 1.0001 1.0001 0 0 0 66.738281 36.996094 L 63.724609 37.160156 C 65.466494 35.155147 67.26274 33.192604 69.111328 31.271484 L 72.226562 33.914062 A 1.0001 1.0001 0 1 0 73.519531 32.388672 L 70.503906 29.830078 C 72.84721 27.457817 75.274694 25.157582 77.785156 22.9375 L 78.820312 25.714844 A 1.0005664 1.0005664 0 1 0 80.695312 25.015625 L 79.400391 21.541016 C 79.943726 21.074652 80.482236 20.603246 81.033203 20.144531 L 83.070312 24.84375 A 1.0001 1.0001 0 1 0 84.904297 24.048828 L 82.646484 18.837891 C 84.325573 17.481095 86.027144 16.147825 87.775391 14.865234 z M 77.638672 30.929688 C 77.003672 30.929688 76.488281 31.459234 76.488281 32.115234 C 76.488281 32.770234 77.003672 33.304688 77.638672 33.304688 C 78.273672 33.304688 78.789062 32.770234 78.789062 32.115234 C 78.789062 31.459234 78.273672 30.929688 77.638672 30.929688 z M 53.433594 58.439453 C 52.799594 58.439453 52.284203 58.971953 52.283203 59.626953 C 52.283203 60.281953 52.798594 60.814453 53.433594 60.814453 C 54.068594 60.814453 54.582031 60.281953 54.582031 59.626953 C 54.582031 58.970953 54.068594 58.439453 53.433594 58.439453 z M 49.761719 63.667969 C 49.126719 63.667969 48.611328 64.198516 48.611328 64.853516 C 48.611328 65.508516 49.126719 66.042969 49.761719 66.042969 C 50.396719 66.042969 50.910156 65.509516 50.910156 64.853516 C 50.910156 64.197516 50.396719 63.667969 49.761719 63.667969 z"/></svg>