<svg width="737" height="642" viewBox="0 0 737 642" fill="none" xmlns="http://www.w3.org/2000/svg">
<path d="M65 289H705C713.487 289 721.626 292.371 727.627 298.373C733.629 304.374 737 312.513 737 321C737 329.487 733.629 337.626 727.627 343.627C721.626 349.629 713.487 353 705 353H65C56.5131 353 48.3738 349.629 42.3726 343.627C36.3714 337.626 33 329.487 33 321C33 312.513 36.3714 304.374 42.3726 298.373C48.3738 292.371 56.5131 289 65 289Z" fill="#F8F8F8"/>
<path d="M78.248 321L343.656 586.344C349.665 592.353 353.04 600.502 353.04 609C353.04 617.498 349.665 625.647 343.656 631.656C337.647 637.665 329.498 641.04 321 641.04C312.502 641.04 304.353 637.665 298.344 631.656L10.344 343.656C7.36396 340.683 4.99963 337.152 3.38641 333.265C1.7732 329.377 0.94281 325.209 0.94281 321C0.94281 316.791 1.7732 312.623 3.38641 308.735C4.99963 304.848 7.36396 301.317 10.344 298.344L298.344 10.344C304.353 4.33525 312.502 0.959579 321 0.959579C329.498 0.959579 337.647 4.33525 343.656 10.344C349.665 16.3527 353.04 24.5024 353.04 33C353.04 41.4976 349.665 49.6473 343.656 55.656L78.248 321Z" fill="#F8F8F8"/>
</svg>
